<?xml version="1.0" standalone="no"?><!DOCTYPE svg PUBLIC "-//W3C//DTD SVG 1.1//EN" "http://www.w3.org/Graphics/SVG/1.1/DTD/svg11.dtd"><svg t="1547117195171" class="icon" style="" viewBox="0 0 1024 1024" version="1.1" xmlns="http://www.w3.org/2000/svg" p-id="2241" xmlns:xlink="http://www.w3.org/1999/xlink" width="64" height="64"><defs><style type="text/css"></style></defs><path d="M479.1 803.4c0 11-9 20-20 20H444c-11 0-20-9-20-20V532.5c0-11 9-20 20-20h15.1c11 0 20 9 20 20v270.9zM594.5 803.4c0 11-9 20-20 20h-15.1c-11 0-20-9-20-20V532.5c0-11 9-20 20-20h15.1c11 0 20 9 20 20v270.9z" fill="#707070" p-id="2242"></path><path d="M838.3 225.4c11 0 20 9 20 20v20.1c0 11-9 20-20 20H179.9c-11 0-20-9-20-20v-20.1c0-11 9-20 20-20h658.4zM545.5 151.1c0 11-9 20-20 20h-32.9c-11 0-20-9-20-20v-32.9c0-11 9-20 20-20h32.9c11 0 20 9 20 20v32.9zM247.9 349.5c-11 0-18.6 8.9-16.8 19.8l86.1 538.9c1.7 10.9 12.2 19.8 23.2 19.8l336.6 0.3c11 0 21.4-8.9 23.2-19.7l87-539.5c1.8-10.9-5.8-19.7-16.8-19.7l-522.5 0.1zM650.7 848c-1.7 10.9-12.1 19.8-23.1 19.8H390.5c-11 0-21.4-8.9-23.1-19.8l-65.9-418.5c-1.7-10.9 5.9-19.8 16.9-19.8h381.3c11 0 18.6 8.9 16.9 19.8L650.7 848z" fill="#707070" p-id="2243"></path></svg>