<?xml version="1.0" standalone="no"?><!DOCTYPE svg PUBLIC "-//W3C//DTD SVG 1.1//EN" "http://www.w3.org/Graphics/SVG/1.1/DTD/svg11.dtd"><svg t="1547117337267" class="icon" style="" viewBox="0 0 1137 1024" version="1.1" xmlns="http://www.w3.org/2000/svg" p-id="3171" xmlns:xlink="http://www.w3.org/1999/xlink" width="71.0625" height="64"><defs><style type="text/css"></style></defs><path d="M1080.888889 1024H56.888889a56.888889 56.888889 0 0 1-56.888889-56.888889V682.666667h113.777778v227.555555h910.222222v-227.555555h113.777778v284.444444a56.888889 56.888889 0 0 1-56.888889 56.888889z m-187.335111-665.998222a56.888889 56.888889 0 0 0-80.440889 0L625.777778 545.336889V56.888889a56.888889 56.888889 0 1 0-113.777778 0v488.448l-187.335111-187.335111a56.888889 56.888889 0 0 0-80.440889 80.440889l284.444444 284.444444a56.888889 56.888889 0 0 0 80.554667 0l284.444445-284.444444a56.888889 56.888889 0 0 0-0.113778-80.440889z" fill="#1296db" p-id="3172"></path></svg>